<svg xmlns="http://www.w3.org/2000/svg" xmlns:xlink="http://www.w3.org/1999/xlink" xmlns:fi="http://pattern.flaticon.com/" x="0" y="0" width="1320" height="660" viewBox="0 0 1320 660"><rect x="0px" y="0px" width="100%" height="100%" opacity="0" fill="#0046f4"/><defs><g transform="matrix(0.13140408495670375 -0.10011739505639948 0.10011739505639948 0.13140408495670375 187.21310362989607 190.86663577561424)" id="L1_4"><path d="M436,80h-1.472c-4.335-12.442-17.935-19.014-30.376-14.68c-6.877,2.396-12.284,7.802-14.68,14.68H388  c-8.837,0-16,7.163-16,16s7.163,16,16,16h48c8.837,0,16-7.163,16-16S444.837,80,436,80L436,80z" fill="#8aced8"/><g><path d="M280.528,352H175.472l-33.6-56h172.256L280.528,352z M184.528,336h86.944l14.4-24H170.128   L184.528,336z" fill="#d9d9d9"/><path d="M267.592,234.44L244.104,304H284.8l47.368-87.784l0.088-0.368L332,216   C311.266,224.474,289.669,230.657,267.592,234.44z" fill="#d9d9d9"/></g><path d="M272.36,117.376c7.64,33.887,7.64,69.049,0,102.936l-4.8,14.128  c22.088-3.78,43.696-9.964,64.44-18.44l0.256-0.152c10.332-35.971,10.332-74.125,0-110.096l-1.104-2.08  c-21.917-8.914-44.804-15.224-68.192-18.8L272.36,117.376z" fill="#f0f0f0"/><path d="M188.408,234.44c-22.077-3.783-43.674-9.966-64.408-18.44h-0.064l0.064,0.256L171.368,304h40.528  L188.408,234.44z" fill="#d9d9d9"/><path d="M262.936,84.872L238.472,0.528C234.992,0.304,231.536,0,228,0s-6.992,0.304-10.472,0.528  l-24.464,84.344C216.231,81.472,239.769,81.472,262.936,84.872z" fill="#d85021"/><path d="M331.128,103.672L281.04,9.192c-13.727-4.818-28.05-7.733-42.568-8.664l24.464,84.344  C286.324,88.448,309.211,94.758,331.128,103.672z" fill="#d9d9d9"/><path d="M332,104l54.072,32.448c-8.733-58.601-49.15-107.57-105.032-127.256l50.088,94.48  C331.416,103.784,331.704,103.88,332,104z" fill="#d85021"/><path d="M188.408,234.44l-4.8-14.128c-7.64-33.887-7.64-69.049,0-102.936l9.424-32.504  c-23.32,3.562-46.143,9.845-68,18.72l-1.144,2.16c-10.356,36.006-10.356,74.202,0,110.208L124,216  C144.734,224.474,166.331,230.657,188.408,234.44L188.408,234.44z" fill="#f0f0f0"/><path d="M188.408,234.44L211.896,304h32.208l23.488-69.56C241.377,238.8,214.623,238.8,188.408,234.44  L188.408,234.44z" fill="#d85021"/><path d="M183.64,220.312l4.8,14.128c26.22,4.362,52.98,4.362,79.2,0l4.8-14.128  c7.64-33.887,7.64-69.049,0-102.936l-9.424-32.504c-23.167-3.4-46.705-3.4-69.872,0l-9.424,32.504  C176.054,151.257,176.026,186.419,183.64,220.312L183.64,220.312z" fill="#f26b32"/><path d="M332.168,216.216L284.8,304H300c47.023-23.235,79.323-68.434,86.072-120.448l-53.816,32.296  L332.168,216.216z" fill="#d85021"/><path d="M386.072,136.448L332,104c-0.296-0.12-0.584-0.216-0.872-0.328l1.104,2.08  c10.332,35.971,10.332,74.125,0,110.096l53.816-32.296c1.231-7.792,1.884-15.664,1.952-23.552  C387.939,152.112,387.295,144.24,386.072,136.448L386.072,136.448z" fill="#f26b32"/><path d="M193.064,84.872l24.464-84.344C203.094,1.454,188.853,4.345,175.2,9.12l-50.12,94.472  C146.932,94.718,169.749,88.435,193.064,84.872z" fill="#d9d9d9"/><g><path d="M125.08,103.592L175.2,9.12C119.203,28.744,78.677,77.761,69.928,136.448L124,104   C124.36,103.856,124.72,103.736,125.08,103.592z" fill="#d85021"/><path d="M124,216.216L123.936,216l-54.008-32.408C76.69,235.591,108.987,280.773,156,304h15.368L124,216.216   z" fill="#d85021"/></g><path d="M123.936,105.752l1.144-2.16c-0.36,0.144-0.72,0.264-1.08,0.408l-54.072,32.448  C68.705,144.24,68.061,152.113,68,160c0.061,7.887,0.705,15.76,1.928,23.552L123.936,216  C113.572,179.981,113.572,141.771,123.936,105.752z" fill="#f26b32"/><g><path d="M252,408h-48c-3.2,0-6.091-1.907-7.352-4.848l-24-56c-1.741-4.061,0.14-8.764,4.201-10.505   C177.845,336.22,178.917,336,180,336h96c4.418,0,8,3.583,7.999,8.001c0,1.083-0.22,2.155-0.647,3.151l-24,56   C258.091,406.093,255.2,408,252,408z M209.272,392h37.456l17.136-40h-71.728L209.272,392z" fill="#d9d9d9"/><path d="M257.272,408h-58.544l-30.864-72h120.272L257.272,408z M209.272,392h37.456l17.136-40h-71.728   L209.272,392z" fill="#d9d9d9"/><path d="M220,336h16v72h-16V336z" fill="#d9d9d9"/></g><g><path d="M68,312h-1.472c-4.335-12.442-17.935-19.014-30.376-14.68c-6.877,2.396-12.284,7.802-14.68,14.68H20   c-8.837,0-16,7.163-16,16s7.163,16,16,16h48c8.837,0,16-7.163,16-16S76.837,312,68,312z" fill="#8aced8"/><path d="M76,384h17.472c4.393-12.473,18.066-19.023,30.539-14.629c9.596,3.38,16.009,12.455,15.989,22.629v8   c0,8.837-7.163,16-16,16H76c-8.837,0-16-7.163-16-16S67.163,384,76,384z" fill="#8aced8"/></g><path d="M244,456h-32c-8.837,0-16-7.163-16-16v-40c0-4.418,3.582-8,8-8h48c4.418,0,8,3.582,8,8v40  C260,448.837,252.837,456,244,456z" fill="#804d35"/></g><g transform="matrix(0.11490485466850446 -0.08249578895745145 0.08249578895745145 0.11490485466850446 -39.37615447022942 69.22182422934728)" id="L1_5"><path d="m0 96h480v272h-480zm0 0" fill="#bab8b9"/><path d="m0 96h432v272h-432zm0 0" fill="#d9d7d8"/><path d="m0 0h480v96h-480zm0 0" fill="#ca5057"/><path d="m0 0h432v96h-432zm0 0" fill="#dc6068"/><path d="m200 456h96v24h-96zm0 0" fill="#699ce6"/><path d="m192 368-16-48v-104c0-8.839844 7.160156-16 16-16s16 7.160156 16 16v88l16-24h16l16 24h16l16 24h16l16 24v48l-24 56h-96l-32-56-8-40 24-16" fill="#dcb29c"/><path d="m288 344-16-24h-16l-16-24h-16l-16 24v-88c0-8.839844-7.160156-16-16-16s-16 7.160156-16 16v88l8 24-4.359375 2.910156 4.359375 13.089844-21.175781 14.121094 5.175781 25.878906 32 56h96l24-56v-32l-16-24zm0 0" fill="#f3c6b0"/><g fill="#efedee"><path d="m128 32h320v32h-320zm0 0"/><path d="m24 40h16v16h-16zm0 0"/><path d="m56 40h16v16h-16zm0 0"/><path d="m88 40h16v16h-16zm0 0"/><path d="m236 227.199219-14.664062-6.398438c1.769531-4.039062 2.664062-8.34375 2.664062-12.800781 0-17.648438-14.351562-32-32-32s-32 14.351562-32 32c0 4.457031.894531 8.761719 2.664062 12.800781l-14.664062 6.398438c-2.65625-6.0625-4-12.527344-4-19.199219 0-26.472656 21.527344-48 48-48s48 21.527344 48 48c0 6.671875-1.34375 13.136719-4 19.199219zm0 0"/><path d="m296 120h160v16h-160zm0 0"/><path d="m296 152h160v16h-160zm0 0"/><path d="m296 184h160v16h-160zm0 0"/><path d="m296 216h160v16h-160zm0 0"/><path d="m344 248h112v16h-112zm0 0"/><path d="m344 280h112v16h-112zm0 0"/></g><path d="m48 168h16v136h-16zm0 0" fill="#bab8b9"/><path d="m48 168h8v136h-8zm0 0" fill="#efedee"/><path d="m80 312c0 13.253906-10.746094 24-24 24s-24-10.746094-24-24 10.746094-24 24-24 24 10.746094 24 24zm0 0" fill="#dc6068"/><path d="m80 152c0 13.253906-10.746094 24-24 24s-24-10.746094-24-24 10.746094-24 24-24 24 10.746094 24 24zm0 0" fill="#699ce6"/></g><g transform="matrix(0.13032053209595748 -0.08872887915734347 0.08872887915734347 0.13032053209595748 147.99034988555476 -4.100119119225791)" id="L1_9"><path d="m250.898438 441.839844c-1.722657 0-3.445313-.5625-4.878907-1.6875l-230.890625-181.191406c-3.433594-2.695313-4.03125-7.660157-1.339844-11.09375 2.695313-3.433594 7.664063-4.035157 11.09375-1.339844l226.015626 177.367187 226.015624-177.367187c3.433594-2.691406 8.398438-2.09375 11.09375 1.339844 2.695313 3.433593 2.09375 8.398437-1.339843 11.09375l-230.890625 181.191406c-1.433594 1.125-3.15625 1.6875-4.878906 1.6875zm0 0" fill="#48ffe0"/><path d="m491.242188 95.15625c8.753906 0 13.6875 10.054688 8.335937 16.980469l-110.289063 142.714843-130.054687 168.300782c-4.21875 5.457031-12.453125 5.457031-16.671875 0l-130.054688-168.300782-110.289062-142.714843c-5.351562-6.925781-.417969-16.980469 8.335938-16.980469zm0 0" fill="#a6ffee"/><path d="m450.015625 467.714844h-398.230469c0-28.511719 23.109375-51.625 51.621094-51.625h294.988281c28.507813 0 51.621094 23.113281 51.621094 51.625zm0 0" fill="#64bdff"/><path d="m466.449219 512h-431.097657c-5.816406 0-10.535156-4.71875-10.535156-10.535156v-36.871094c0-5.820312 4.71875-10.535156 10.535156-10.535156h431.097657c5.816406 0 10.535156 4.714844 10.535156 10.535156v36.871094c0 5.816406-4.71875 10.535156-10.535156 10.535156zm0 0" fill="#e3f4ff"/><path d="m91.816406 494.578125c-4.363281 0-7.898437-3.539063-7.898437-7.898437v-7.375c0-4.367188 3.535156-7.902344 7.898437-7.902344 4.363282 0 7.902344 3.539062 7.902344 7.902344v7.375c0 4.359374-3.539062 7.898437-7.902344 7.898437zm0 0" fill="#00e5b9"/><path d="m64.425781 494.578125c-4.363281 0-7.902343-3.539063-7.902343-7.898437v-7.375c0-4.367188 3.539062-7.902344 7.902343-7.902344s7.902344 3.539062 7.902344 7.902344v7.375c0 4.359374-3.539063 7.898437-7.902344 7.898437zm0 0" fill="#fd6069"/><path d="m437.375 494.578125h-318.164062c-4.367188 0-7.902344-3.539063-7.902344-7.898437v-7.375c0-4.367188 3.539062-7.902344 7.902344-7.902344 4.183593 0 7.613281 3.257812 7.882812 7.375h302.394531c.273438-4.117188 3.699219-7.375 7.886719-7.375 4.363281 0 7.898438 3.539062 7.898438 7.902344v7.375c0 4.359374-3.535157 7.898437-7.898438 7.898437zm0 0" fill="#89b4c9"/><path d="m392.835938 141.9375c0 78.390625-63.546876 141.9375-141.9375 141.9375-78.386719 0-141.9375-63.546875-141.9375-141.9375s63.550781-141.9375 141.9375-141.9375c78.390624 0 141.9375 63.546875 141.9375 141.9375zm0 0" fill="#00e5b9"/><path d="m392.757812 146.707031c-2.507812 76.179688-65.066406 137.167969-141.859374 137.167969-12.492188 0-24.621094-1.609375-36.164063-4.65625v-25.746094c0-3.492187 2.828125-6.324218 6.320313-6.324218h44.941406c3.492187 0 6.320312-2.828126 6.320312-6.320313v-18.960937c0-3.492188-2.828125-6.320313-6.320312-6.320313h-4.910156c-3.488282 0-6.320313-2.832031-6.320313-6.324219v-22.480468c0-3.492188 2.832031-6.320313 6.320313-6.320313h67.425781c3.492187 0 6.320312-2.832031 6.320312-6.320313v-21.070312c0-3.492188 2.832031-6.320312 6.324219-6.320312h51.601562zm0 0" fill="#64bdff"/><path d="m305.335938 106.925781v24.589844c0 3.492187-2.832032 6.320313-6.320313 6.320313h-77.960937c-3.492188 0-6.320313 2.828124-6.320313 6.320312v15.445312c0 3.492188-2.832031 6.320313-6.324219 6.320313h-37.925781c-3.492187 0-6.320313 2.832031-6.320313 6.320313v22.484374c0 3.492188-2.832031 6.320313-6.320312 6.320313h-36.03125c-8.25-17.992187-12.855469-38.019531-12.855469-59.113281 0-71.101563 52.296875-130.003906 120.523438-140.328125v56.164062c0 3.488281 2.832031 6.320313 6.320312 6.320313h36.515625c3.492188 0 6.320313 2.828125 6.320313 6.320312v23.871094c0 3.492188 2.832031 6.324219 6.324219 6.324219h14.050781c3.492187 0 6.324219 2.828125 6.324219 6.320312zm0 0" fill="#64bdff"/><path d="m379.957031 79.035156h-23.175781c-2.910156 0-5.269531-2.355468-5.269531-5.265625v-23.175781c0-2.910156 2.359375-5.269531 5.269531-5.269531h23.175781c2.910157 0 5.265625 2.359375 5.265625 5.269531v23.175781c0 2.910157-2.355468 5.265625-5.265625 5.265625zm0 0" fill="#64bdff"/><path d="m157.488281 45.324219h-23.179687c-2.90625 0-5.265625-2.359375-5.265625-5.269531v-23.175782c0-2.910156 2.355469-5.269531 5.265625-5.269531h23.179687c2.90625 0 5.265625 2.359375 5.265625 5.269531v23.179688c0 2.90625-2.359375 5.265625-5.265625 5.265625zm0 0" fill="#00e5b9"/><path d="m120.550781 158.792969h-23.175781c-2.910156 0-5.269531-2.359375-5.269531-5.269531v-23.175782c0-2.910156 2.359375-5.269531 5.269531-5.269531h23.175781c2.910157 0 5.269531 2.359375 5.269531 5.269531v23.175782c0 2.910156-2.359374 5.269531-5.269531 5.269531zm0 0" fill="#fc3e4b"/><path d="m316.921875 292.914062h-23.175781c-2.910156 0-5.269532-2.355468-5.269532-5.265624v-23.179688c0-2.90625 2.359376-5.265625 5.269532-5.265625h23.175781c2.910156 0 5.269531 2.355469 5.269531 5.265625v23.179688c0 2.90625-2.359375 5.265624-5.269531 5.265624zm0 0" fill="#fc3e4b"/><g fill="#00e5b9"><path d="m437.289062 119.820312c-.078124 0-.152343 0-.230468-.003906-4.359375-.121094-7.796875-3.757812-7.675782-8.121094l.011719-.417968c.125-4.363282 3.753907-7.800782 8.121094-7.675782 4.363281.125 7.800781 3.757813 7.679687 8.121094l-.015624.417969c-.121094 4.289063-3.632813 7.679687-7.890626 7.679687zm0 0"/><path d="m437.367188 146.5625c-.078126 0-.152344 0-.230469-.003906-4.359375-.121094-7.796875-3.757813-7.675781-8.121094l.011718-.417969c.125-4.363281 3.734375-7.789062 8.121094-7.675781 4.363281.121094 7.800781 3.757812 7.675781 8.121094l-.011719.417968c-.121093 4.289063-3.632812 7.679688-7.890624 7.679688zm0 0"/><path d="m450.910156 132.949219c-.074218 0-.148437 0-.226562-.003907l-.417969-.011718c-4.363281-.121094-7.800781-3.757813-7.675781-8.121094.121094-4.363281 3.742187-7.796875 8.121094-7.675781l.417968.011719c4.363282.125 7.800782 3.757812 7.675782 8.121093-.121094 4.285157-3.632813 7.679688-7.894532 7.679688zm0 0"/><path d="m424.171875 133.027344c-.078125 0-.152344 0-.226563-.003906l-.417968-.011719c-4.363282-.121094-7.800782-3.757813-7.679688-8.121094.125-4.363281 3.734375-7.816406 8.121094-7.675781l.421875.011718c4.359375.125 7.796875 3.757813 7.675781 8.121094-.121094 4.285156-3.636718 7.679688-7.894531 7.679688zm0 0"/><path d="m82.292969 53.644531c-.074219 0-.148438 0-.226563-.003906-4.359375-.121094-7.796875-3.757813-7.675781-8.121094l.011719-.417969c.125-4.363281 3.753906-7.8125 8.121094-7.675781 4.363281.125 7.800781 3.757813 7.675781 8.121094l-.011719.417969c-.117188 4.289062-3.632812 7.679687-7.894531 7.679687zm0 0"/><path d="m82.375 80.386719c-.078125 0-.152344 0-.230469-.003907-4.359375-.121093-7.796875-3.757812-7.675781-8.121093l.015625-.417969c.121094-4.363281 3.730469-7.804688 8.117187-7.675781 4.363282.121093 7.800782 3.757812 7.679688 8.121093l-.015625.417969c-.121094 4.285157-3.632813 7.679688-7.890625 7.679688zm0 0"/><path d="m95.921875 66.773438c-.078125 0-.152344 0-.226563-.003907l-.421874-.011719c-4.359376-.121093-7.796876-3.757812-7.675782-8.121093.125-4.363281 3.742188-7.808594 8.121094-7.675781l.417969.011718c4.363281.125 7.800781 3.757813 7.675781 8.121094-.117188 4.285156-3.632812 7.679688-7.890625 7.679688zm0 0"/><path d="m69.179688 66.851562c-.078126 0-.152344 0-.226563-.003906l-.417969-.011718c-4.363281-.121094-7.800781-3.757813-7.675781-8.121094.121094-4.363282 3.757813-7.800782 8.117187-7.675782l.421876.011719c4.359374.125 7.796874 3.757813 7.675781 8.121094-.121094 4.285156-3.636719 7.679687-7.894531 7.679687zm0 0"/></g></g><g transform="matrix(0.1171875 0 0 0.1171875 50.99999997070313 151)" id="L1_10"><path d="m409.535156 461.789062v39.910157c0 5.6875-4.613281 10.300781-10.300781 10.300781h-311.1875c-5.6875 0-10.300781-4.613281-10.300781-10.300781v-39.910157c0-19.316406 15.65625-34.976562 34.972656-34.976562h261.84375c19.316406 0 34.972656 15.660156 34.972656 34.976562zm0 0" fill="#43a3f9"/><path d="m409.539062 461.785156v39.910156c0 5.6875-4.613281 10.300782-10.304687 10.300782h-12.558594v-50.210938c0-19.308594-15.660156-34.96875-34.972656-34.96875h22.863281c19.316406 0 34.972656 15.65625 34.972656 34.96875zm0 0" fill="#1685fb"/><path d="m243.640625 455.808594c-17.558594 0-31.792969-14.234375-31.792969-31.792969v-40.761719h63.585938v40.761719c0 17.558594-14.234375 31.792969-31.792969 31.792969zm0 0" fill="#fecbaa"/><path d="m414.535156 256.078125c0 21.179687-17.167968 38.347656-38.347656 38.347656-21.175781 0-38.347656-17.167969-38.347656-38.347656s17.171875-38.347656 38.347656-38.347656c21.179688 0 38.347656 17.167969 38.347656 38.347656zm0 0" fill="#fecbaa"/><path d="m149.445312 256.078125c0 21.179687-17.167968 38.347656-38.347656 38.347656-21.179687 0-38.347656-17.167969-38.347656-38.347656s17.167969-38.347656 38.347656-38.347656c21.179688 0 38.347656 17.167969 38.347656 38.347656zm0 0" fill="#fecbaa"/><path d="m356.625 293.773438 8.558594-151.214844c.890625-15.71875-11.613282-28.953125-27.359375-28.953125h-188.363281c-15.742188 0-28.25 13.234375-27.359376 28.953125l8.558594 151.214844c3.390625 59.917968 52.96875 106.769531 112.984375 106.769531 60.011719 0 109.589844-46.851563 112.980469-106.769531zm0 0" fill="#fedfc5"/><path d="m187.683594 254.820312h-.179688c-4.265625 0-7.726562-3.460937-7.726562-7.726562 0-4.269531 3.460937-7.726562 7.726562-7.726562h.179688c4.269531 0 7.726562 3.460937 7.726562 7.726562s-3.457031 7.726562-7.726562 7.726562zm0 0" fill="#1685fb"/><path d="m299.78125 254.820312h-.179688c-4.265624 0-7.726562-3.460937-7.726562-7.726562 0-4.269531 3.460938-7.726562 7.726562-7.726562h.179688c4.265625 0 7.726562 3.460937 7.726562 7.726562s-3.460937 7.726562-7.726562 7.726562zm0 0" fill="#1685fb"/><path d="m243.644531 364.71875c-23.375 0-43.019531-16.757812-46.707031-39.847656-.671875-4.210938 2.199219-8.175782 6.410156-8.847656 4.210938-.667969 8.175782 2.199218 8.847656 6.410156 2.484376 15.546875 15.707032 26.832031 31.445313 26.832031s28.964844-11.285156 31.445313-26.832031c.675781-4.210938 4.640624-7.078125 8.847656-6.410156 4.214844.671874 7.085937 4.636718 6.414062 8.847656-3.6875 23.089844-23.328125 39.847656-46.703125 39.847656zm0 0" fill="#ffae85"/><path d="m250.585938 307.417969h-13.886719c-6.726563 0-11.890625-5.964844-10.925781-12.625l6.945312-47.917969c.785156-5.429688 5.4375-9.453125 10.925781-9.453125 5.484375 0 10.136719 4.027344 10.925781 9.453125l6.941407 47.917969c.964843 6.65625-4.199219 12.625-10.925781 12.625zm0 0" fill="#fd8289"/><path d="m326.089844 235.257812c-1.453125 0-2.921875-.40625-4.226563-1.261718-13.933593-9.128906-30.941406-4.664063-31.109375-4.617188-4.101562 1.117188-8.355468-1.292968-9.488281-5.394531s1.246094-8.339844 5.34375-9.492187c.960937-.269532 23.800781-6.46875 43.722656 6.574218 3.566407 2.339844 4.566407 7.128906 2.230469 10.699219-1.484375 2.261719-3.953125 3.492187-6.472656 3.492187zm0 0" fill="#4e7693"/><path d="m161.195312 235.257812c-2.519531 0-4.988281-1.226562-6.46875-3.492187-2.339843-3.570313-1.339843-8.359375 2.226563-10.699219 19.921875-13.042968 42.761719-6.84375 43.726563-6.574218 4.105468 1.15625 6.503906 5.421874 5.347656 9.53125-1.148438 4.097656-5.398438 6.488281-9.5 5.355468-.351563-.09375-17.25-4.457031-31.105469 4.617188-1.304687.851562-2.773437 1.261718-4.226563 1.261718zm0 0" fill="#4e7693"/><path d="m387.648438 177.988281h-288.011719v-33.980469c0-79.535156 64.472656-144.007812 144.007812-144.007812 79.53125 0 144.003907 64.472656 144.003907 144.007812zm0 0" fill="#e3f4ff"/><path d="m264.609375 50.890625h32.285156c23.265625 0 42.125 18.863281 42.125 42.128906v17.121094c0 32.890625-26.664062 59.558594-59.554687 59.558594h-24.476563v-109.183594c0-5.316406 4.308594-9.625 9.621094-9.625zm0 0" fill="#fd8289"/><g fill="#fd6069"><path d="m283.898438 113.292969c-4.265626 0-7.726563-3.457031-7.726563-7.726563 0-11.769531 6.898437-22.582031 17.570313-27.550781 3.871093-1.800781 8.464843-.125 10.265624 3.746094 1.800782 3.867187.125 8.464843-3.746093 10.265625-5.246094 2.441406-8.636719 7.757812-8.636719 13.539062 0 4.269532-3.460938 7.726563-7.726562 7.726563zm0 0"/><path d="m336.96875 119.925781c-1.980469 0-3.957031-.753906-5.464844-2.261719-2.816406-2.820312-6.566406-4.371093-10.550781-4.371093-4.269531 0-7.726563-3.457031-7.726563-7.726563 0-4.265625 3.457032-7.726562 7.726563-7.726562 8.113281 0 15.738281 3.160156 21.476563 8.898437 3.019531 3.015625 3.019531 7.90625 0 10.925781-1.507813 1.507813-3.484376 2.261719-5.460938 2.261719zm0 0"/><path d="m278.554688 77.449219c-4.269532 0-7.726563-3.460938-7.726563-7.726563 0-3.988281-1.554687-7.734375-4.371094-10.550781-3.019531-3.019531-3.019531-7.910156 0-10.929687 3.015625-3.015626 7.90625-3.015626 10.925781 0 5.738282 5.738281 8.898438 13.367187 8.898438 21.480468-.003906 4.265625-3.460938 7.726563-7.726562 7.726563zm0 0"/><path d="m281.5625 149.882812c-4.265625 0-7.726562-3.460937-7.726562-7.726562 0-4.269531 3.460937-7.726562 7.726562-7.726562 8.226562 0 14.921875-6.695313 14.921875-14.921876 0-4.269531 3.460937-7.726562 7.726563-7.726562 4.265624 0 7.726562 3.457031 7.726562 7.726562 0 16.75-13.625 30.375-30.375 30.375zm0 0"/></g><path d="m222.675781 50.890625h-32.285156c-23.265625 0-42.125 18.863281-42.125 42.128906v17.121094c0 32.890625 26.664063 59.558594 59.554687 59.558594h24.476563v-109.183594c0-5.316406-4.308594-9.625-9.621094-9.625zm0 0" fill="#fd8289"/><path d="m203.386719 113.292969c-4.265625 0-7.726563-3.457031-7.726563-7.726563 0-8.226562-6.691406-14.921875-14.921875-14.921875-4.265625 0-7.726562-3.460937-7.726562-7.726562 0-4.269531 3.460937-7.726563 7.726562-7.726563 16.75 0 30.375 13.628906 30.375 30.375 0 4.269532-3.460937 7.726563-7.726562 7.726563zm0 0" fill="#fd6069"/><path d="m208.734375 77.449219c-4.269531 0-7.726563-3.460938-7.726563-7.726563 0-8.113281 3.15625-15.742187 8.894532-21.480468 3.019531-3.015626 7.910156-3.015626 10.929687 0 3.015625 3.019531 3.015625 7.910156 0 10.929687-2.820312 2.816406-4.371093 6.5625-4.371093 10.550781 0 4.265625-3.460938 7.726563-7.726563 7.726563zm0 0" fill="#fd6069"/><path d="m205.722656 149.882812c-16.75 0-30.375-13.628906-30.375-30.375 0-4.269531 3.460938-7.726562 7.726563-7.726562s7.726562 3.457031 7.726562 7.726562c0 8.226563 6.691407 14.921876 14.921875 14.921876 4.265625 0 7.726563 3.460937 7.726563 7.726562 0 4.269531-3.460938 7.726562-7.726563 7.726562zm0 0" fill="#fd6069"/><path d="m392.394531 192.242188h-297.503906c-7.875 0-14.257813-6.382813-14.257813-14.253907 0-7.875 6.382813-14.257812 14.257813-14.257812h297.503906c7.875 0 14.257813 6.382812 14.257813 14.257812s-6.382813 14.253907-14.257813 14.253907zm0 0" fill="#83d9ff"/><path d="m314.753906 83.460938c-1.976562 0-3.953125-.757813-5.464844-2.265626-3.015624-3.015624-3.015624-7.910156 0-10.925781l47.773438-47.777343c1.449219-1.445313 3.414062-2.261719 5.464844-2.261719h71.859375c4.265625 0 7.726562 3.460937 7.726562 7.726562s-3.460937 7.726563-7.726562 7.726563h-68.660157l-45.507812 45.511718c-1.511719 1.507813-3.488281 2.265626-5.464844 2.265626zm0 0" fill="#fc3e4b"/><path d="m471.605469 91.085938h-59.597657c-4.265624 0-7.726562-3.460938-7.726562-7.726563 0-4.269531 3.460938-7.726563 7.726562-7.726563h59.597657c4.265625 0 7.726562 3.457032 7.726562 7.726563 0 4.265625-3.460937 7.726563-7.726562 7.726563zm0 0" fill="#84a1c0"/><path d="m458.078125 113.191406h-46.070313c-4.265624 0-7.726562-3.460937-7.726562-7.726562 0-4.269532 3.460938-7.726563 7.726562-7.726563h46.070313c4.269531 0 7.726563 3.457031 7.726563 7.726563 0 4.265625-3.457032 7.726562-7.726563 7.726562zm0 0" fill="#84a1c0"/><path d="m412.007812 63.660156c-4.25 0-7.703124-3.4375-7.726562-7.691406v-.105469c-.019531-4.265625 3.421875-7.742187 7.691406-7.761719h.035156c4.25 0 7.707032 3.433594 7.726563 7.6875v.105469c.019531 4.269531-3.421875 7.742188-7.6875 7.765625-.015625 0-.027344 0-.039063 0zm0 0" fill="#fd6069"/><path d="m434.535156 63.605469c-4.265625 0-7.726562-3.460938-7.726562-7.726563v-.105468c0-4.269532 3.460937-7.726563 7.726562-7.726563 4.269532 0 7.726563 3.460937 7.726563 7.726563v.105468c0 4.265625-3.457031 7.726563-7.726563 7.726563zm0 0" fill="#fd6069"/><path d="m165.078125 112.039062c-1.976563 0-3.957031-.753906-5.464844-2.261718l-45.507812-45.511719h-68.660157c-4.265624 0-7.726562-3.457031-7.726562-7.726563 0-4.265624 3.460938-7.722656 7.726562-7.722656h71.859376c2.050781 0 4.015624.8125 5.464843 2.261719l47.773438 47.773437c3.015625 3.015626 3.015625 7.910157 0 10.925782-1.511719 1.507812-3.488281 2.261718-5.464844 2.261718zm0 0" fill="#fc3e4b"/><path d="m67.824219 119.664062h-59.597657c-4.265624 0-7.726562-3.457031-7.726562-7.726562 0-4.265625 3.460938-7.722656 7.726562-7.722656h59.597657c4.265625 0 7.726562 3.457031 7.726562 7.722656 0 4.269531-3.460937 7.726562-7.726562 7.726562zm0 0" fill="#84a1c0"/><path d="m67.824219 141.773438h-46.070313c-4.269531 0-7.726562-3.460938-7.726562-7.726563s3.457031-7.726563 7.726562-7.726563h46.070313c4.265625 0 7.726562 3.460938 7.726562 7.726563s-3.460937 7.726563-7.726562 7.726563zm0 0" fill="#84a1c0"/><path d="m67.824219 92.238281c-.011719 0-.023438 0-.039063 0-4.265625-.019531-7.710937-3.496093-7.6875-7.761719v-.105468c.019532-4.253906 3.476563-7.6875 7.726563-7.6875h.035156c4.269531.019531 7.710937 3.496094 7.691406 7.761718v.105469c-.023437 4.253907-3.476562 7.6875-7.726562 7.6875zm0 0" fill="#fd6069"/><path d="m45.296875 92.183594c-4.269531 0-7.726563-3.457032-7.726563-7.722656v-.105469c0-4.269531 3.457032-7.726563 7.726563-7.726563 4.265625 0 7.726563 3.457032 7.726563 7.726563v.105469c0 4.265624-3.460938 7.722656-7.726563 7.722656zm0 0" fill="#fd6069"/><path d="m171.046875 428.8125v83.1875h-15.449219v-83.1875c0-.691406.089844-1.359375.265625-2 .875-3.296875 3.882813-5.726562 7.460938-5.726562 3.574219 0 6.582031 2.429687 7.457031 5.726562.175781.640625.265625 1.308594.265625 2zm0 0" fill="#1685fb"/><path d="m197.496094 477.683594c-4.265625 0-7.773438-3.460938-7.773438-7.726563 0-4.269531 3.414063-7.726562 7.679688-7.726562h.09375c4.265625 0 7.726562 3.460937 7.726562 7.726562s-3.457031 7.726563-7.726562 7.726563zm0 0" fill="#e3f4ff"/><path d="m197.496094 502.765625c-4.265625 0-7.773438-3.457031-7.773438-7.726563 0-4.265624 3.414063-7.722656 7.679688-7.722656h.09375c4.265625 0 7.726562 3.457032 7.726562 7.722656 0 4.269532-3.457031 7.726563-7.726562 7.726563zm0 0" fill="#e3f4ff"/></g><g transform="matrix(0.1025022963928891 -0.07422579618741497 0.07422579618741497 0.1025022963928891 72.7670175362767 268.69985128529123)" id="L1_11"><path d="m240.898438 117.65625v351.128906c0 23.867188-19.347657 43.214844-43.214844 43.214844h-154.464844c-23.867188 0-43.21484375-19.347656-43.21484375-43.214844v-351.117187c0-23.867188 19.34765575-43.21875 43.21484375-43.21875h154.476562c23.859376 0 43.203126 19.347656 43.203126 43.207031zm0 0" fill="#89b4c9"/><path d="m240.898438 117.667969v351.117187c0 23.867188-19.34375 43.214844-43.203126 43.214844h-20.605468c23.859375 0 43.207031-19.347656 43.207031-43.214844v-351.117187c0-23.871094-19.347656-43.21875-43.207031-43.21875h20.605468c23.859376 0 43.203126 19.347656 43.203126 43.21875zm0 0" fill="#618baa"/><path d="m240.898438 135.148438v316.152343h-189.226563c-28.535156 0-51.66796875-23.132812-51.66796875-51.667969v-264.484374zm0 0" fill="#48ffe0"/><path d="m220.296875 135.148438h20.601563v316.152343h-20.601563zm0 0" fill="#00e5b9"/><path d="m0 47.28125c0-26.113281 21.167969-47.28125 47.28125-47.28125h36.945312c24.015626 0 43.425782 19.589844 43.199219 43.609375l-3.144531 334.53125c-.222656 23.542969-19.257812 42.574219-42.800781 42.792969l-34.199219.492187c-26.109375 0-47.28125 21.167969-47.28125 47.28125zm0 0" fill="#4e7693"/><path d="m59.535156 420.933594c23.542969-.21875 42.578125-19.253906 42.804688-42.796875l3.144531-334.53125c.226563-24.011719-19.183594-43.605469-43.207031-43.605469h21.941406c24.023438 0 43.433594 19.59375 43.207031 43.609375l-3.140625 334.53125c-.226562 23.539063-19.253906 42.574219-42.804687 42.792969zm0 0" fill="#2f5e75"/><path d="m194.90625 210.824219h-29.449219c-4.570312 0-8.273437-3.703125-8.273437-8.273438v-27.5625c0-4.570312 3.703125-8.273437 8.273437-8.273437h29.449219c4.566406 0 8.269531 3.703125 8.269531 8.273437v27.5625c0 4.570313-3.703125 8.273438-8.269531 8.273438zm0 0" fill="#fdb659"/><path d="m194.90625 280.460938h-29.449219c-4.570312 0-8.273437-3.703126-8.273437-8.273438v-27.5625c0-4.570312 3.703125-8.273438 8.273437-8.273438h29.449219c4.566406 0 8.269531 3.703126 8.269531 8.273438v27.5625c0 4.570312-3.703125 8.273438-8.269531 8.273438zm0 0" fill="#fc3e4b"/><path d="m194.90625 350.097656h-29.449219c-4.570312 0-8.273437-3.703125-8.273437-8.273437v-27.5625c0-4.570313 3.703125-8.273438 8.273437-8.273438h29.449219c4.566406 0 8.269531 3.703125 8.269531 8.273438v27.5625c0 4.570312-3.703125 8.273437-8.269531 8.273437zm0 0" fill="#e3f4ff"/><path d="m194.90625 419.734375h-29.449219c-4.570312 0-8.273437-3.703125-8.273437-8.269531v-27.566406c0-4.570313 3.703125-8.273438 8.273437-8.273438h29.449219c4.566406 0 8.269531 3.703125 8.269531 8.273438v27.566406c0 4.566406-3.703125 8.269531-8.269531 8.269531zm0 0" fill="#1685fb"/></g><g transform="matrix(0.1171875 0 0 0.1171875 78.99999998535156 64)" id="L1_12"><path d="m281.375 512h-59.953125c-4.046875 0-7.328125-3.28125-7.328125-7.328125v-139.867187c0-4.046876 3.28125-7.328126 7.328125-7.328126h59.953125c4.046875 0 7.328125 3.28125 7.328125 7.328126v139.867187c0 4.046875-3.28125 7.328125-7.328125 7.328125zm0 0" fill="#618baa"/><path d="m288.703125 364.808594v139.867187c0 4.042969-3.277344 7.324219-7.324219 7.324219h-19.507812c4.042968 0 7.324218-3.28125 7.324218-7.324219v-139.867187c0-4.054688-3.28125-7.324219-7.324218-7.324219h19.507812c4.046875 0 7.324219 3.269531 7.324219 7.324219zm0 0" fill="#4e7693"/><path d="m214.097656 461.886719h74.605469v25.015625h-74.605469zm0 0" fill="#fdb659"/><path d="m269.195312 461.890625h19.507813v25.007813h-19.507813zm0 0" fill="#fd8724"/><path d="m92.945312 404.003906h316.914063c4.828125 0 9.226563-2.800781 11.269531-7.179687l12.503906-26.777344-364.464843.003906 12.507812 26.777344c2.042969 4.378906 6.4375 7.175781 11.269531 7.175781zm0 0" fill="#e3f4ff"/><path d="m42.660156 377.546875c-23.523437 0-42.660156-19.140625-42.660156-42.664063v-292.222656c0-23.523437 19.136719-42.660156 42.660156-42.660156h417.480469c23.519531 0 42.660156 19.136719 42.660156 42.660156v292.222656c0 23.523438-19.140625 42.660157-42.660156 42.660157h-417.480469zm0 0" fill="#618baa"/><path d="m42.660156 359.273438c-13.449218 0-24.390625-10.941407-24.390625-24.390626v-292.222656c0-13.449218 10.941407-24.390625 24.390625-24.390625h417.480469c13.449219 0 24.390625 10.941407 24.390625 24.390625v292.222656c0 13.449219-10.941406 24.390626-24.390625 24.390626zm0 0" fill="#4e7693"/><path d="m471.847656 42.664062v292.222657c0 6.460937-5.242187 11.703125-11.710937 11.703125h-417.472657c-.378906 0-.75-.019532-1.121093-.050782-5.945313-.566406-10.589844-5.574218-10.589844-11.652343v-292.222657c0-6.46875 5.242187-11.710937 11.710937-11.710937h417.472657c6.46875 0 11.710937 5.242187 11.710937 11.710937zm0 0" fill="#83d9ff"/><path d="m451.449219 30.953125-283.9375 315.636719h-39.371094l283.9375-315.636719zm0 0" fill="#aeeaff"/><path d="m382.5625 30.953125-283.9375 315.636719h-55.960938c-.378906 0-.75-.019532-1.121093-.050782l283.886719-315.585937zm0 0" fill="#aeeaff"/><g fill="#618baa"><path d="m175.761719 350.578125c-4.269531 0-7.726563-3.460937-7.726563-7.726563v-308.15625c0-4.269531 3.457032-7.726562 7.726563-7.726562 4.265625 0 7.722656 3.457031 7.722656 7.726562v308.15625c.003906 4.265626-3.457031 7.726563-7.722656 7.726563zm0 0"/><path d="m327.039062 350.578125c-4.265624 0-7.726562-3.460937-7.726562-7.726563v-308.15625c0-4.269531 3.460938-7.726562 7.726562-7.726562 4.269532 0 7.726563 3.457031 7.726563 7.726562v308.15625c0 4.265626-3.457031 7.726563-7.726563 7.726563zm0 0"/><path d="m471.851562 141.003906h-440.902343c-4.265625 0-7.726563-3.457031-7.726563-7.726562 0-4.265625 3.460938-7.726563 7.726563-7.726563h440.902343c4.265626 0 7.722657 3.460938 7.722657 7.726563 0 4.269531-3.457031 7.726562-7.722657 7.726562zm0 0"/><path d="m471.851562 251.992188h-440.902343c-4.265625 0-7.726563-3.457032-7.726563-7.722657 0-4.269531 3.460938-7.726562 7.726563-7.726562h440.902343c4.265626 0 7.722657 3.457031 7.722657 7.726562 0 4.265625-3.457031 7.722657-7.722657 7.722657zm0 0"/></g><path d="m320.167969 265.957031-14.816407-14.816406c-3.796874-3.796875-3.796874-9.949219 0-13.746094l14.816407-14.816406c3.796875-3.796875 9.949219-3.796875 13.742187 0l14.820313 14.816406c3.792969 3.796875 3.792969 9.949219 0 13.746094l-14.820313 14.816406c-3.792968 3.796875-9.945312 3.796875-13.742187 0zm0 0" fill="#fdb659"/><path d="m322.96875 257.117188-8.777344-8.777344c-2.25-2.25-2.25-5.894532 0-8.144532l8.777344-8.777343c2.25-2.25 5.894531-2.25 8.140625 0l8.78125 8.777343c2.246094 2.25 2.246094 5.894532 0 8.144532l-8.78125 8.777344c-2.246094 2.246093-5.890625 2.246093-8.140625 0zm0 0" fill="#fd8724"/><path d="m320.167969 154.96875-14.816407-14.820312c-3.796874-3.792969-3.796874-9.949219 0-13.742188l14.816407-14.816406c3.796875-3.796875 9.949219-3.796875 13.742187 0l14.820313 14.816406c3.792969 3.792969 3.792969 9.949219 0 13.742188l-14.820313 14.820312c-3.792968 3.792969-9.945312 3.792969-13.742187 0zm0 0" fill="#fdb659"/><path d="m322.96875 146.128906-8.777344-8.78125c-2.25-2.246094-2.25-5.894531 0-8.140625l8.777344-8.78125c2.25-2.246093 5.894531-2.246093 8.140625 0l8.78125 8.78125c2.246094 2.246094 2.246094 5.894531 0 8.140625l-8.78125 8.78125c-2.246094 2.246094-5.890625 2.246094-8.140625 0zm0 0" fill="#fd8724"/><path d="m168.886719 265.957031-14.816407-14.816406c-3.796874-3.796875-3.796874-9.949219 0-13.746094l14.816407-14.816406c3.796875-3.796875 9.949219-3.796875 13.746093 0l14.816407 14.816406c3.792969 3.796875 3.792969 9.949219 0 13.746094l-14.816407 14.816406c-3.796874 3.796875-9.949218 3.796875-13.746093 0zm0 0" fill="#fdb659"/><path d="m171.6875 257.117188-8.777344-8.777344c-2.25-2.25-2.25-5.894532 0-8.144532l8.777344-8.777343c2.25-2.25 5.894531-2.25 8.144531 0l8.777344 8.777343c2.25 2.25 2.25 5.894532 0 8.144532l-8.777344 8.777344c-2.25 2.246093-5.894531 2.246093-8.144531 0zm0 0" fill="#fd8724"/><path d="m168.886719 154.96875-14.816407-14.820312c-3.796874-3.792969-3.796874-9.949219 0-13.742188l14.816407-14.816406c3.796875-3.796875 9.949219-3.796875 13.746093 0l14.816407 14.816406c3.792969 3.792969 3.792969 9.949219 0 13.742188l-14.816407 14.820312c-3.796874 3.792969-9.949218 3.792969-13.746093 0zm0 0" fill="#fdb659"/><path d="m171.6875 146.128906-8.777344-8.78125c-2.25-2.246094-2.25-5.894531 0-8.140625l8.777344-8.78125c2.25-2.246093 5.894531-2.246093 8.144531 0l8.777344 8.78125c2.25 2.246094 2.25 5.894531 0 8.140625l-8.777344 8.78125c-2.25 2.246094-5.894531 2.246094-8.144531 0zm0 0" fill="#fd8724"/></g><g transform="matrix(0.1171875 0 0 0.1171875 312.99999998535156 260)" id="L1_13"><path d="m252.488281 441.394531c-1.734375 0-3.46875-.566406-4.90625-1.699219l-232.355469-182.339843c-3.457031-2.710938-4.058593-7.710938-1.347656-11.164063 2.710938-3.457031 7.707032-4.058594 11.164063-1.347656l227.445312 178.492188 227.449219-178.488282c3.453125-2.710937 8.453125-2.109375 11.164062 1.34375 2.710938 3.457032 2.105469 8.453125-1.347656 11.164063l-232.355468 182.339843c-1.441407 1.132813-3.175782 1.699219-4.910157 1.699219zm0 0" fill="#48ffe0"/><path d="m502.746094 109.601562-241.867188 312.988282c-4.246094 5.492187-12.535156 5.492187-16.777344 0l-241.871093-312.988282c-5.382813-6.96875-.417969-17.085937 8.390625-17.085937h483.734375c8.808593 0 13.777343 10.117187 8.390625 17.085937zm0 0" fill="#a6ffee"/><g fill="#00e5b9"><path d="m457.035156 28.550781c-.074218 0-.148437 0-.21875-.003906-4.390625-.117187-7.855468-3.773437-7.734375-8.160156l.011719-.421875c.117188-4.390625 3.785156-7.875 8.160156-7.734375 4.390625.117187 7.855469 3.773437 7.734375 8.160156l-.011719.421875c-.113281 4.320312-3.652343 7.738281-7.941406 7.738281zm0 0"/><path d="m457.113281 55.460938c-.078125 0-.160156 0-.238281-.003907-4.390625-.128906-7.84375-3.792969-7.714844-8.179687l.011719-.421875c.128906-4.390625 3.78125-7.84375 8.183594-7.714844 4.390625.128906 7.84375 3.792969 7.714843 8.179687l-.015624.421876c-.125 4.3125-3.660157 7.71875-7.941407 7.71875zm0 0"/><path d="m470.746094 41.761719c-.078125 0-.152344 0-.230469-.003907l-.421875-.011718c-4.390625-.125-7.847656-3.78125-7.722656-8.171875s3.761718-7.828125 8.171875-7.722657l.421875.011719c4.390625.121094 7.847656 3.78125 7.722656 8.171875-.121094 4.3125-3.65625 7.726563-7.941406 7.726563zm0 0"/><path d="m443.835938 41.839844c-.078126 0-.152344 0-.230469 0l-.421875-.015625c-4.390625-.121094-7.847656-3.78125-7.722656-8.171875.121093-4.3125 3.65625-7.726563 7.941406-7.726563.078125 0 .152344 0 .230468.003907l.421876.011718c4.390624.125 7.847656 3.78125 7.722656 8.171875-.117188 4.3125-3.65625 7.726563-7.941406 7.726563zm0 0"/><path d="m144.886719 215.460938c-.074219 0-.144531 0-.21875-.003907-4.390625-.117187-7.851563-3.773437-7.734375-8.164062l.011718-.421875c.117188-4.390625 3.78125-7.875 8.164063-7.734375 4.390625.121093 7.851563 3.773437 7.734375 8.164062l-.011719.421875c-.117187 4.316406-3.65625 7.738282-7.945312 7.738282zm0 0"/><path d="m144.964844 242.371094c-.078125 0-.15625 0-.238282-.003906-4.390624-.128907-7.84375-3.792969-7.714843-8.183594l.015625-.421875c.128906-4.386719 3.761718-7.847657 8.179687-7.710938 4.390625.128907 7.84375 3.789063 7.714844 8.179688l-.011719.421875c-.128906 4.3125-3.660156 7.71875-7.945312 7.71875zm0 0"/><path d="m158.597656 228.671875c-.078125 0-.152344 0-.230468-.003906l-.417969-.011719c-4.390625-.125-7.851563-3.785156-7.726563-8.171875.125-4.390625 3.75-7.847656 8.171875-7.726563l.421875.011719c4.390625.125 7.847656 3.785157 7.726563 8.175781-.125 4.3125-3.660157 7.726563-7.945313 7.726563zm0 0"/><path d="m131.6875 228.75c-.074219 0-.152344 0-.226562-.003906l-.421876-.011719c-4.390624-.125-7.851562-3.78125-7.726562-8.171875.121094-4.390625 3.824219-7.835938 8.171875-7.722656l.421875.011718c4.390625.121094 7.847656 3.78125 7.726562 8.171876-.121093 4.3125-3.65625 7.726562-7.945312 7.726562zm0 0"/><path d="m311.296875 257.6875c-.078125 0-.15625 0-.238281-.003906-4.390625-.128906-7.84375-3.792969-7.714844-8.179688l.011719-.425781c.132812-4.386719 3.761719-7.835937 8.183593-7.710937 4.390626.128906 7.84375 3.789062 7.714844 8.179687l-.011718.421875c-.128907 4.3125-3.660157 7.71875-7.945313 7.71875zm0 0"/><path d="m311.375 284.597656c-.078125 0-.15625 0-.238281-.003906-4.386719-.128906-7.84375-3.792969-7.710938-8.183594l.011719-.421875c.128906-4.386719 3.792969-7.859375 8.179688-7.710937 4.390624.128906 7.84375 3.792968 7.714843 8.179687l-.011719.421875c-.125 4.3125-3.660156 7.71875-7.945312 7.71875zm0 0"/><path d="m325.007812 270.898438c-.074218 0-.152343 0-.226562-.003907l-.421875-.011719c-4.390625-.125-7.847656-3.78125-7.726563-8.171874.125-4.390626 3.730469-7.847657 8.175782-7.726563l.417968.011719c4.390626.125 7.851563 3.785156 7.726563 8.175781-.121094 4.3125-3.65625 7.726563-7.945313 7.726563zm0 0"/><path d="m298.097656 270.976562c-.074218 0-.152344 0-.226562-.003906l-.421875-.011718c-4.390625-.121094-7.847657-3.78125-7.726563-8.171876.125-4.390624 3.804688-7.835937 8.171875-7.722656l.421875.011719c4.390625.121094 7.847656 3.78125 7.726563 8.171875-.121094 4.3125-3.65625 7.726562-7.945313 7.726562zm0 0"/></g><path d="m404.613281 178.90625h-304.4375c-5.855469 0-10.601562-4.75-10.601562-10.601562v-157.703126c0-5.855468 4.746093-10.601562 10.601562-10.601562h293.835938c5.855469 0 10.601562 4.746094 10.601562 10.601562zm0 0" fill="#83d9ff"/><path d="m150.050781 107.644531h-22.527343c-4.394532 0-7.953126-3.558593-7.953126-7.949219 0-4.390624 3.558594-7.953124 7.953126-7.953124h22.527343c4.390625 0 7.949219 3.5625 7.949219 7.953124.003906 4.390626-3.558594 7.949219-7.949219 7.949219zm0 0" fill="#e3f4ff"/><path d="m371.863281 34.210938h-2.449219v-2.445313c0-4.390625-3.558593-7.953125-7.949218-7.953125-4.394532 0-7.953125 3.558594-7.953125 7.953125v2.445313h-2.445313c-4.390625 0-7.953125 3.558593-7.953125 7.953124 0 4.390626 3.5625 7.949219 7.953125 7.949219h2.445313v2.445313c0 4.390625 3.558593 7.953125 7.953125 7.953125 4.390625 0 7.949218-3.5625 7.949218-7.953125v-2.445313h2.449219c4.390625 0 7.949219-3.558593 7.949219-7.949219 0-4.390624-3.558594-7.953124-7.949219-7.953124zm0 0" fill="#e3f4ff"/><path d="m259.917969 131.90625h-132.394531c-4.394532 0-7.953126-3.558594-7.953126-7.949219s3.558594-7.953125 7.953126-7.953125h132.394531c4.390625 0 7.949219 3.5625 7.949219 7.953125s-3.558594 7.949219-7.949219 7.949219zm0 0" fill="#e3f4ff"/><path d="m259.917969 152.699219h-132.394531c-4.394532 0-7.953126-3.558594-7.953126-7.949219s3.558594-7.953125 7.953126-7.953125h132.394531c4.390625 0 7.949219 3.5625 7.949219 7.953125s-3.558594 7.949219-7.949219 7.949219zm0 0" fill="#e3f4ff"/><path d="m127.523438 58.433594c-4.394532 0-7.953126-3.5625-7.953126-7.953125v-16.636719c0-4.390625 3.558594-7.953125 7.953126-7.953125h16.636718c4.390625 0 7.949219 3.5625 7.949219 7.953125s-3.558594 7.953125-7.949219 7.953125h-8.6875v8.683594c0 4.390625-3.558594 7.953125-7.949218 7.953125zm0 0" fill="#e3f4ff"/><path d="m212.261719 67.789062h-25.996094c-4.390625 0-7.949219-3.558593-7.949219-7.953124v-25.992188c0-4.390625 3.558594-7.953125 7.949219-7.953125h25.996094c4.390625 0 7.949219 3.5625 7.949219 7.953125v25.996094c.003906 4.390625-3.558594 7.949218-7.949219 7.949218zm-18.042969-15.902343h10.089844v-10.089844h-10.089844zm0 0" fill="#e3f4ff"/><path d="m251.773438 45.433594h-16.636719c-4.390625 0-7.953125-3.558594-7.953125-7.949219s3.5625-7.953125 7.953125-7.953125h16.636719c4.390624 0 7.949218 3.5625 7.949218 7.953125s-3.558594 7.949219-7.949218 7.949219zm0 0" fill="#e3f4ff"/><path d="m289.203125 64.148438h-54.066406c-4.390625 0-7.953125-3.558594-7.953125-7.949219s3.5625-7.953125 7.953125-7.953125h54.066406c4.390625 0 7.953125 3.5625 7.953125 7.953125s-3.5625 7.949219-7.953125 7.949219zm0 0" fill="#e3f4ff"/><path d="m434.472656 100.339844v97.601562l-16.878906 21.851563h-102.5625c-5.855469 0-10.601562-4.746094-10.601562-10.601563v-108.851562c0-5.855469 4.746093-10.601563 10.601562-10.601563h108.839844c5.855468 0 10.601562 4.746094 10.601562 10.601563zm0 0" fill="#43a3f9"/><path d="m350.714844 185.808594c-2.070313 0-4.101563-.808594-5.625-2.328125l-16.40625-16.40625c-3.101563-3.105469-3.101563-8.140625 0-11.246094 3.109375-3.105469 8.140625-3.105469 11.246094 0l2.832031 2.832031v-26.992187c0-4.390625 3.5625-7.949219 7.953125-7.949219h53.878906c4.390625 0 7.953125 3.558594 7.953125 7.949219s-3.5625 7.953125-7.953125 7.953125h-45.925781v38.238281c0 3.214844-1.9375 6.113281-4.910157 7.34375-.984374.410156-2.015624.605469-3.042968.605469zm0 0" fill="#e3f4ff"/><path d="m253.8125 279.902344h-49.460938c-5.855468 0-10.601562-4.746094-10.601562-10.601563v-49.460937c0-5.855469 4.746094-10.601563 10.601562-10.601563h49.460938c5.855469 0 10.601562 4.746094 10.601562 10.601563v49.460937c0 5.855469-4.746093 10.601563-10.601562 10.601563zm0 0" fill="#43a3f9"/><path d="m238.09375 242.714844h-18.023438c-4.394531 0-7.953124-3.558594-7.953124-7.953125 0-4.390625 3.558593-7.949219 7.953124-7.949219h18.023438c4.390625 0 7.949219 3.558594 7.949219 7.949219 0 4.394531-3.558594 7.953125-7.949219 7.953125zm0 0" fill="#e3f4ff"/><path d="m238.09375 262.328125h-18.023438c-4.394531 0-7.953124-3.558594-7.953124-7.949219s3.558593-7.953125 7.953124-7.953125h18.023438c4.390625 0 7.949219 3.558594 7.949219 7.953125 0 4.390625-3.558594 7.949219-7.949219 7.949219zm0 0" fill="#e3f4ff"/><path d="m452.867188 467.433594h-400.753907c0-28.691406 23.257813-51.949219 51.949219-51.949219h296.855469c28.691406 0 51.949219 23.257813 51.949219 51.949219zm0 0" fill="#64bdff"/><path d="m469.402344 512h-433.828125c-5.855469 0-10.601563-4.746094-10.601563-10.601562v-37.109376c0-5.851562 4.746094-10.601562 10.601563-10.601562h433.832031c5.851562 0 10.601562 4.75 10.601562 10.601562v37.109376c-.003906 5.855468-4.75 10.601562-10.605468 10.601562zm0 0" fill="#e3f4ff"/><path d="m92.398438 494.46875c-4.390626 0-7.949219-3.5625-7.949219-7.953125v-7.417969c0-4.394531 3.558593-7.953125 7.949219-7.953125 4.394531 0 7.953124 3.558594 7.953124 7.953125v7.417969c0 4.390625-3.558593 7.953125-7.953124 7.953125zm0 0" fill="#00e5b9"/><path d="m64.835938 494.46875c-4.394532 0-7.953126-3.5625-7.953126-7.953125v-7.417969c0-4.394531 3.5625-7.953125 7.953126-7.953125 4.390624 0 7.949218 3.558594 7.949218 7.953125v7.417969c0 4.390625-3.558594 7.953125-7.949218 7.953125zm0 0" fill="#fd6069"/><path d="m440.144531 494.46875h-320.179687c-4.390625 0-7.953125-3.5625-7.953125-7.953125v-7.417969c0-4.394531 3.5625-7.953125 7.953125-7.953125 4.210937 0 7.660156 3.277344 7.933594 7.421875h304.3125c.273437-4.144531 3.722656-7.421875 7.933593-7.421875 4.394531 0 7.953125 3.558594 7.953125 7.953125v7.417969c0 4.390625-3.5625 7.953125-7.953125 7.953125zm0 0" fill="#89b4c9"/></g><g transform="matrix(0.1171875 0 0 0.1171875 212 69)" id="L1_14"><path d="m80.84375 341.957031h29.601562v34.273438h-29.601562zm0 0" fill="#618baa"/><path d="m52.347656 340.476562h15.453125v44.8125h-15.453125zm0 0" fill="#fd6069"/><path d="m125.113281 340.476562h15.453125v44.8125h-15.453125zm0 0" fill="#fd6069"/><path d="m150.410156 340.476562h15.453125v44.8125h-15.453125zm0 0" fill="#43a3f9"/><path d="m26.003906 224.019531h-6.761718c-8.648438 0-15.65625-7.007812-15.65625-15.65625v-23.507812c0-8.644531 7.007812-15.65625 15.65625-15.65625h6.761718c8.644532 0 15.652344 7.011719 15.652344 15.65625v23.507812c0 8.648438-7.007812 15.65625-15.652344 15.65625zm0 0" fill="#618baa"/><path d="m64.074219 224.019531h-6.761719c-8.644531 0-15.65625-7.007812-15.65625-15.65625v-23.507812c0-8.644531 7.007812-15.65625 15.65625-15.65625h6.761719c8.644531 0 15.65625 7.011719 15.65625 15.65625v23.507812c0 8.648438-7.007813 15.65625-15.65625 15.65625zm0 0" fill="#4e7693"/><path d="m102.148438 224.019531h-6.761719c-8.648438 0-15.65625-7.007812-15.65625-15.65625v-23.507812c0-8.644531 7.007812-15.65625 15.65625-15.65625h6.761719c8.644531 0 15.65625 7.011719 15.65625 15.65625v23.507812c-.003907 8.648438-7.011719 15.65625-15.65625 15.65625zm0 0" fill="#618baa"/><path d="m140.21875 224.019531h-6.761719c-8.644531 0-15.65625-7.007812-15.65625-15.65625v-23.507812c0-8.644531 7.011719-15.65625 15.65625-15.65625h6.761719c8.644531 0 15.65625 7.011719 15.65625 15.65625v23.507812c0 8.648438-7.011719 15.65625-15.65625 15.65625zm0 0" fill="#4e7693"/><path d="m172.898438 347.644531h-127.585938c-4.003906 0-7.558594-2.5625-8.824219-6.363281l-14.625-43.917969h174.488281l-14.625 43.917969c-1.265624 3.800781-4.824218 6.363281-8.828124 6.363281zm0 0" fill="#2f5e75"/><path d="m208.410156 314.734375h-61.792968v-71.09375h40.773437c16.746094 0 30.324219 13.578125 30.324219 30.324219v31.46875c0 5.136718-4.164063 9.300781-9.304688 9.300781zm0 0" fill="#618baa"/><path d="m180.40625 314.992188h-145.808594c-18.832031 0-34.097656-15.265626-34.097656-34.09375v-62.9375c0-5.679688 4.605469-10.285157 10.285156-10.285157h138.875c4.871094 0 9.074219 3.417969 10.070313 8.1875zm0 0" fill="#bddff4"/><path d="m180.40625 314.988281h-19.039062l-20.675782-99.125c-1-4.769531-5.203125-8.1875-10.066406-8.1875h19.039062c4.871094 0 9.074219 3.417969 10.066407 8.1875zm0 0" fill="#9cc6db"/><g fill="#bddff4"><path d="m22.621094 176.929688c-4.269532 0-7.726563-3.460938-7.726563-7.726563v-21.8125c0-4.269531 3.460938-7.726563 7.726563-7.726563s7.726562 3.457032 7.726562 7.726563v21.808594c0 4.269531-3.457031 7.730469-7.726562 7.730469zm0 0"/><path d="m60.695312 176.929688c-4.269531 0-7.726562-3.460938-7.726562-7.726563v-21.8125c0-4.269531 3.457031-7.726563 7.726562-7.726563 4.265626 0 7.726563 3.457032 7.726563 7.726563v21.808594c0 4.269531-3.460937 7.730469-7.726563 7.730469zm0 0"/><path d="m98.765625 176.929688c-4.269531 0-7.726563-3.460938-7.726563-7.726563v-21.8125c0-4.269531 3.460938-7.726563 7.726563-7.726563s7.726563 3.457032 7.726563 7.726563v21.808594c0 4.269531-3.457032 7.730469-7.726563 7.730469zm0 0"/><path d="m136.839844 176.929688c-4.269532 0-7.726563-3.460938-7.726563-7.726563v-21.8125c0-4.269531 3.457031-7.726563 7.726563-7.726563 4.265625 0 7.726562 3.457032 7.726562 7.726563v21.808594c0 4.269531-3.460937 7.730469-7.726562 7.730469zm0 0"/></g><path d="m79.734375 49.59375v82.136719c0 8.652343-7.003906 15.667969-15.660156 15.667969h-6.757813c-8.652344 0-15.65625-7.015626-15.65625-15.667969v-82.136719c0-8.644531 7.003906-15.648438 15.65625-15.648438h6.757813c8.65625 0 15.660156 7.003907 15.660156 15.648438zm0 0" fill="#4e7693"/><path d="m79.730469 49.597656v15.027344h-38.070313v-15.027344c0-8.648437 7.007813-15.65625 15.65625-15.65625h6.757813c8.652343 0 15.65625 7.007813 15.65625 15.65625zm0 0" fill="#bddff4"/><path d="m63.015625 89.121094c0 4.265625-3.453125 7.726562-7.726563 7.726562h-13.628906v-15.453125h13.628906c4.273438 0 7.726563 3.460938 7.726563 7.726563zm0 0" fill="#bddff4"/><path d="m117.800781 15.660156v116.070313c0 8.652343-7.003906 15.667969-15.660156 15.667969h-6.757813c-8.652343 0-15.648437-7.015626-15.648437-15.667969v-116.070313c0-8.65625 6.996094-15.660156 15.648437-15.660156h6.757813c8.65625 0 15.660156 7.003906 15.660156 15.660156zm0 0" fill="#618baa"/><path d="m117.796875 15.65625v15.027344h-38.066406v-15.027344c0-8.652344 7.003906-15.65625 15.65625-15.65625h6.757812c8.648438 0 15.652344 7.003906 15.652344 15.65625zm0 0" fill="#e3f4ff"/><path d="m101.089844 55.175781c0 4.273438-3.460938 7.726563-7.726563 7.726563h-13.628906v-15.453125h13.628906c4.265625 0 7.726563 3.460937 7.726563 7.726562zm0 0" fill="#e3f4ff"/><path d="m155.875 49.59375v82.136719c0 8.652343-7.015625 15.667969-15.65625 15.667969h-6.769531c-8.632813 0-15.648438-7.015626-15.648438-15.667969v-82.136719c0-8.644531 7.015625-15.648438 15.648438-15.648438h6.769531c8.640625 0 15.65625 7.003907 15.65625 15.648438zm0 0" fill="#4e7693"/><path d="m155.875 49.597656v15.027344h-38.078125v-15.027344c0-8.648437 7.015625-15.65625 15.65625-15.65625h6.769531c8.636719 0 15.652344 7.007813 15.652344 15.65625zm0 0" fill="#bddff4"/><path d="m139.164062 89.121094c0 4.265625-3.460937 7.726562-7.722656 7.726562h-13.640625v-15.453125h13.640625c4.261719 0 7.722656 3.460938 7.722656 7.726563zm0 0" fill="#bddff4"/><path d="m41.660156 77.367188v54.363281c0 8.652343-7.015625 15.667969-15.660156 15.667969h-6.757812c-8.640626 0-15.65625-7.015626-15.65625-15.667969v-54.363281c0-8.644532 7.015624-15.648438 15.65625-15.648438h6.757812c8.644531 0 15.660156 7.003906 15.660156 15.648438zm0 0" fill="#618baa"/><path d="m41.664062 77.371094v15.027344h-38.078124v-15.027344c0-8.652344 7.015624-15.65625 15.652343-15.65625h6.757813c8.652344 0 15.667968 7.003906 15.667968 15.65625zm0 0" fill="#e3f4ff"/><path d="m24.949219 116.894531c0 4.265625-3.460938 7.726563-7.726563 7.726563h-13.636718v-15.453125h13.636718c4.265625 0 7.726563 3.460937 7.726563 7.726562zm0 0" fill="#e3f4ff"/><path d="m197.960938 259.171875c-.503907 0-1.011719-.050781-1.523438-.152344-4.183594-.839843-6.898438-4.910156-6.058594-9.09375l4.28125-21.386719c.835938-4.183593 4.910156-6.894531 9.09375-6.058593 4.183594.835937 6.894532 4.910156 6.058594 9.09375l-4.285156 21.386719c-.734375 3.671874-3.960938 6.210937-7.566406 6.210937zm0 0" fill="#bddff4"/><path d="m240.476562 154.539062-13.648437 68.15625c-1.433594 7.179688-8.425781 11.828126-15.597656 10.394532l-18.417969-3.6875c-7.171875-1.433594-11.828125-8.425782-10.386719-15.597656l5.5625-27.785157 3.039063-15.152343 5.050781-25.230469c1.429687-7.167969 8.414063-11.824219 15.585937-10.382813l18.429688 3.6875c7.171875 1.429688 11.828125 8.414063 10.382812 15.597656zm0 0" fill="#4e7693"/><path d="m240.480469 154.53125-2.5 12.472656-44.402344-8.890625 2.496094-12.472656c1.4375-7.179687 8.421875-11.824219 15.59375-10.390625l18.421875 3.691406c7.171875 1.433594 11.828125 8.414063 10.390625 15.589844zm0 0" fill="#bddff4"/><path d="m208.398438 182.230469c-.730469 3.664062-3.957032 6.210937-7.5625 6.210937-.503907 0-1.019532-.050781-1.523438-.15625l-11.324219-2.265625 3.039063-15.152343 11.3125 2.265624c4.183594.835938 6.902344 4.914063 6.058594 9.097657zm0 0" fill="#bddff4"/><path d="m186.898438 512h-155.585938c-6.332031 0-11.164062-5.65625-10.171875-11.910156l18.34375-115.914063c.785156-4.996093 5.101563-8.675781 10.160156-8.675781h118.921875c5.070313 0 9.375 3.679688 10.167969 8.675781l18.339844 115.914063c.988281 6.253906-3.84375 11.910156-10.175781 11.910156zm0 0" fill="#bddff4"/><path d="m186.898438 512h-6.597657l-20.222656-127.824219c-.792969-4.996093-5.097656-8.675781-10.15625-8.675781h18.644531c5.070313 0 9.375 3.679688 10.167969 8.675781l18.339844 115.914063c.988281 6.253906-3.84375 11.910156-10.175781 11.910156zm0 0" fill="#9cc6db"/><path d="m158.21875 499.636719h-13.496094c-4.269531 0-7.726562-3.457031-7.726562-7.726563 0-4.265625 3.460937-7.722656 7.726562-7.722656h13.496094c4.269531 0 7.726562 3.457031 7.726562 7.722656 0 4.269532-3.457031 7.726563-7.726562 7.726563zm0 0" fill="#9cc6db"/><path d="m158.21875 477.101562h-13.496094c-4.269531 0-7.726562-3.460937-7.726562-7.726562 0-4.269531 3.460937-7.726562 7.726562-7.726562h13.496094c4.269531 0 7.726562 3.457031 7.726562 7.726562 0 4.265625-3.457031 7.726562-7.726562 7.726562zm0 0" fill="#9cc6db"/><path d="m158.21875 454.5625h-13.496094c-4.269531 0-7.726562-3.460938-7.726562-7.726562 0-4.269532 3.460937-7.726563 7.726562-7.726563h13.496094c4.269531 0 7.726562 3.457031 7.726562 7.726563 0 4.265624-3.457031 7.726562-7.726562 7.726562zm0 0" fill="#9cc6db"/><path d="m91.800781 449.476562v62.523438h-15.453125v-62.523438c0-4.261718 3.460938-7.722656 7.722656-7.722656 4.265626 0 7.730469 3.460938 7.730469 7.722656zm0 0" fill="#618baa"/><path d="m101.390625 432.40625c0 9.566406-7.75 17.316406-17.316406 17.316406-9.5625 0-17.316407-7.75-17.316407-17.316406 0-9.5625 7.753907-17.316406 17.316407-17.316406 9.566406 0 17.316406 7.753906 17.316406 17.316406zm0 0" fill="#48ffe0"/></g></defs><g fi:class="KUsePattern"><pattern id="pattern_L1_4" width="350" height="350" patternUnits="userSpaceOnUse"><use xlink:href="#L1_4" x="-350" y="-350"/><use xlink:href="#L1_4" x="0" y="-350"/><use xlink:href="#L1_4" x="350" y="-350"/><use xlink:href="#L1_4" x="-350" y="0"/><use xlink:href="#L1_4" x="0" y="0"/><use xlink:href="#L1_4" x="350" y="0"/><use xlink:href="#L1_4" x="-350" y="350"/><use xlink:href="#L1_4" x="0" y="350"/><use xlink:href="#L1_4" x="350" y="350"/></pattern><rect x="0" y="0" width="100%" height="100%" fill="url(#pattern_L1_4)"/></g><g fi:class="KUsePattern"><pattern id="pattern_L1_5" width="350" height="350" patternUnits="userSpaceOnUse"><use xlink:href="#L1_5" x="-350" y="-350"/><use xlink:href="#L1_5" x="0" y="-350"/><use xlink:href="#L1_5" x="350" y="-350"/><use xlink:href="#L1_5" x="-350" y="0"/><use xlink:href="#L1_5" x="0" y="0"/><use xlink:href="#L1_5" x="350" y="0"/><use xlink:href="#L1_5" x="-350" y="350"/><use xlink:href="#L1_5" x="0" y="350"/><use xlink:href="#L1_5" x="350" y="350"/></pattern><rect x="0" y="0" width="100%" height="100%" fill="url(#pattern_L1_5)"/></g><g fi:class="KUsePattern"><pattern id="pattern_L1_9" width="350" height="350" patternUnits="userSpaceOnUse"><use xlink:href="#L1_9" x="-350" y="-350"/><use xlink:href="#L1_9" x="0" y="-350"/><use xlink:href="#L1_9" x="350" y="-350"/><use xlink:href="#L1_9" x="-350" y="0"/><use xlink:href="#L1_9" x="0" y="0"/><use xlink:href="#L1_9" x="350" y="0"/><use xlink:href="#L1_9" x="-350" y="350"/><use xlink:href="#L1_9" x="0" y="350"/><use xlink:href="#L1_9" x="350" y="350"/></pattern><rect x="0" y="0" width="100%" height="100%" fill="url(#pattern_L1_9)"/></g><g fi:class="KUsePattern"><pattern id="pattern_L1_10" width="350" height="350" patternUnits="userSpaceOnUse"><use xlink:href="#L1_10" x="-350" y="-350"/><use xlink:href="#L1_10" x="0" y="-350"/><use xlink:href="#L1_10" x="350" y="-350"/><use xlink:href="#L1_10" x="-350" y="0"/><use xlink:href="#L1_10" x="0" y="0"/><use xlink:href="#L1_10" x="350" y="0"/><use xlink:href="#L1_10" x="-350" y="350"/><use xlink:href="#L1_10" x="0" y="350"/><use xlink:href="#L1_10" x="350" y="350"/></pattern><rect x="0" y="0" width="100%" height="100%" fill="url(#pattern_L1_10)"/></g><g fi:class="KUsePattern"><pattern id="pattern_L1_11" width="350" height="350" patternUnits="userSpaceOnUse"><use xlink:href="#L1_11" x="-350" y="-350"/><use xlink:href="#L1_11" x="0" y="-350"/><use xlink:href="#L1_11" x="350" y="-350"/><use xlink:href="#L1_11" x="-350" y="0"/><use xlink:href="#L1_11" x="0" y="0"/><use xlink:href="#L1_11" x="350" y="0"/><use xlink:href="#L1_11" x="-350" y="350"/><use xlink:href="#L1_11" x="0" y="350"/><use xlink:href="#L1_11" x="350" y="350"/></pattern><rect x="0" y="0" width="100%" height="100%" fill="url(#pattern_L1_11)"/></g><g fi:class="KUsePattern"><pattern id="pattern_L1_12" width="350" height="350" patternUnits="userSpaceOnUse"><use xlink:href="#L1_12" x="-350" y="-350"/><use xlink:href="#L1_12" x="0" y="-350"/><use xlink:href="#L1_12" x="350" y="-350"/><use xlink:href="#L1_12" x="-350" y="0"/><use xlink:href="#L1_12" x="0" y="0"/><use xlink:href="#L1_12" x="350" y="0"/><use xlink:href="#L1_12" x="-350" y="350"/><use xlink:href="#L1_12" x="0" y="350"/><use xlink:href="#L1_12" x="350" y="350"/></pattern><rect x="0" y="0" width="100%" height="100%" fill="url(#pattern_L1_12)"/></g><g fi:class="KUsePattern" opacity="1"><pattern id="pattern_L1_13" width="350" height="350" patternUnits="userSpaceOnUse"><use xlink:href="#L1_13" x="-350" y="-350"/><use xlink:href="#L1_13" x="0" y="-350"/><use xlink:href="#L1_13" x="350" y="-350"/><use xlink:href="#L1_13" x="-350" y="0"/><use xlink:href="#L1_13" x="0" y="0"/><use xlink:href="#L1_13" x="350" y="0"/><use xlink:href="#L1_13" x="-350" y="350"/><use xlink:href="#L1_13" x="0" y="350"/><use xlink:href="#L1_13" x="350" y="350"/></pattern><rect x="0" y="0" width="100%" height="100%" fill="url(#pattern_L1_13)"/></g><g fi:class="KUsePattern"><pattern id="pattern_L1_14" width="350" height="350" patternUnits="userSpaceOnUse"><use xlink:href="#L1_14" x="-350" y="-350"/><use xlink:href="#L1_14" x="0" y="-350"/><use xlink:href="#L1_14" x="350" y="-350"/><use xlink:href="#L1_14" x="-350" y="0"/><use xlink:href="#L1_14" x="0" y="0"/><use xlink:href="#L1_14" x="350" y="0"/><use xlink:href="#L1_14" x="-350" y="350"/><use xlink:href="#L1_14" x="0" y="350"/><use xlink:href="#L1_14" x="350" y="350"/></pattern><rect x="0" y="0" width="100%" height="100%" fill="url(#pattern_L1_14)"/></g></svg>